<svg  
width="13" height="13" viewBox="0 0 13 13" fill="none" xmlns="http://www.w3.org/2000/svg">
<path d="M0 2.375C0 1.41797 0.765625 0.625 1.75 0.625H10.5C11.457 0.625 12.25 1.41797 12.25 2.375V11.125C12.25 12.1094 11.457 12.875 10.5 12.875H1.75C0.765625 12.875 0 12.1094 0 11.125V2.375ZM7.05469 4.5625C7.38281 4.5625 7.65625 4.83594 7.65625 5.16406C7.65625 5.38281 7.51953 5.57422 7.35547 5.68359L5.76953 6.64062C5.57812 6.75 5.46875 6.96875 5.46875 7.1875V7.625C5.46875 8.00781 5.74219 8.28125 6.125 8.28125C6.48047 8.28125 6.78125 8.00781 6.78125 7.625V7.57031L8.03906 6.80469C8.61328 6.47656 8.96875 5.84766 8.96875 5.16406C8.96875 4.125 8.09375 3.25 7.05469 3.25H5.46875C4.48438 3.25 3.71875 4.04297 3.71875 5V5.21875C3.71875 5.60156 3.99219 5.875 4.375 5.875C4.73047 5.875 5.03125 5.60156 5.03125 5.21875V5C5.03125 4.78125 5.22266 4.5625 5.46875 4.5625H7.05469ZM6.125 10.6875C6.58984 10.6875 7 10.3047 7 9.8125C7 9.34766 6.58984 8.9375 6.125 8.9375C5.63281 8.9375 5.25 9.34766 5.25 9.8125C5.25 10.3047 5.63281 10.6875 6.125 10.6875ZM1.96875 1.9375C1.58594 1.9375 1.3125 2.23828 1.3125 2.59375C1.3125 2.97656 1.58594 3.25 1.96875 3.25C2.32422 3.25 2.625 2.97656 2.625 2.59375C2.625 2.23828 2.32422 1.9375 1.96875 1.9375ZM10.2812 3.25C10.6367 3.25 10.9375 2.97656 10.9375 2.59375C10.9375 2.23828 10.6367 1.9375 10.2812 1.9375C9.89844 1.9375 9.625 2.23828 9.625 2.59375C9.625 2.97656 9.89844 3.25 10.2812 3.25ZM1.96875 10.25C1.58594 10.25 1.3125 10.5508 1.3125 10.9062C1.3125 11.2891 1.58594 11.5625 1.96875 11.5625C2.32422 11.5625 2.625 11.2891 2.625 10.9062C2.625 10.5508 2.32422 10.25 1.96875 10.25ZM10.2812 11.5625C10.6367 11.5625 10.9375 11.2891 10.9375 10.9062C10.9375 10.5508 10.6367 10.25 10.2812 10.25C9.89844 10.25 9.625 10.5508 9.625 10.9062C9.625 11.2891 9.89844 11.5625 10.2812 11.5625Z" fill="#176FFF"/>
</svg>