<svg width="16" height="15" viewBox="0 0 16 15" fill="none" xmlns="http://www.w3.org/2000/svg">
<path d="M15.1426 10.1488C14.8701 10.8525 14.4872 11.5112 14.0077 12.1013C13.5386 12.6803 12.9855 13.1899 12.3657 13.6143C11.1004 14.4767 9.59154 14.9376 8.04604 14.934C7.03469 14.9402 6.03294 14.743 5.10385 14.3547C4.20732 13.9829 3.39485 13.4433 2.71275 12.7666C2.03082 12.0854 1.48866 11.2842 1.11526 10.4058C0.723954 9.49516 0.5254 8.51725 0.531431 7.53041C0.524317 6.53548 0.726833 5.54966 1.12652 4.63364C1.50995 3.75215 2.05936 2.94797 2.74651 2.26242C3.43072 1.58253 4.24253 1.03621 5.13813 0.652929C6.78729 -0.0418489 8.64121 -0.125688 10.3497 0.417249C11.0661 0.648108 11.7451 0.976918 12.3662 1.39378C12.9854 1.81076 13.5353 2.31731 13.9969 2.89587C14.4708 3.48836 14.8503 4.14674 15.1226 4.84893H11.0675C10.7008 4.43453 10.25 4.09818 9.7433 3.86096C9.22126 3.61606 8.64822 3.49119 8.06855 3.49601C7.53997 3.49639 7.01687 3.60013 6.53039 3.80104C6.04392 4.00194 5.60402 4.29592 5.23689 4.66546C4.87063 5.0392 4.57913 5.47589 4.37725 5.95325C4.1628 6.45278 4.05404 6.98916 4.05745 7.53041C4.05254 8.06721 4.15688 8.59966 4.36446 9.09714C4.55823 9.56644 4.84669 9.99331 5.21284 10.3526C5.58032 10.7084 6.01455 10.9925 6.49205 11.1894C7.01297 11.4034 7.57417 11.5092 8.13964 11.4999C8.7051 11.4907 9.26233 11.3666 9.77554 11.1357C10.286 10.9008 10.7403 10.5646 11.109 10.1488H15.1426Z" fill="black"/>
</svg>
