<svg width="22" height="23" viewBox="0 0 22 23" fill="none" xmlns="http://www.w3.org/2000/svg">
<path d="M11 22.75C4.89844 22.75 0 17.8516 0 11.75C0 5.69141 4.89844 0.75 11 0.75C17.0586 0.75 22 5.69141 22 11.75C22 17.8516 17.0586 22.75 11 22.75ZM9.96875 11.75C9.96875 12.0938 10.1406 12.4375 10.3984 12.6094L14.5234 15.3594C14.9961 15.7031 15.6406 15.5742 15.9414 15.1016C16.2852 14.6289 16.1562 13.9844 15.6836 13.6406L12.0312 11.2344V5.90625C12.0312 5.34766 11.5586 4.875 10.957 4.875C10.3984 4.875 9.92578 5.34766 9.92578 5.90625L9.96875 11.75Z" fill="#176FFF"/>
</svg>