<svg width="15" height="15" viewBox="0 0 15 15" fill="none" xmlns="http://www.w3.org/2000/svg">
<path d="M6.43505 14.9326H0.926758V0.063365H6.43505C7.51716 0.0574239 8.5924 0.230611 9.61466 0.575497C10.5849 0.900722 11.4818 1.40408 12.2565 2.05819C13.0202 2.70775 13.6344 3.50639 14.0592 4.40207C14.5102 5.36672 14.7357 6.41644 14.7197 7.47585C14.7358 8.53543 14.5102 9.58532 14.0592 10.5501C13.6354 11.4438 13.0299 12.2448 12.279 12.9049C11.5128 13.5703 10.6186 14.0815 9.64792 14.409C8.61599 14.7621 7.52905 14.9392 6.43505 14.9326ZM4.50958 11.4441H6.43505C7.15203 11.4591 7.86563 11.3446 8.53961 11.1065C9.08773 10.9113 9.58753 10.6064 10.0066 10.2115C10.379 9.85324 10.6691 9.4223 10.8575 8.94711C11.231 8.01442 11.231 6.97955 10.8575 6.04686C10.669 5.57171 10.379 5.14077 10.0066 4.78244C9.58745 4.38765 9.08767 4.08274 8.53961 3.88745C7.86555 3.64964 7.152 3.53518 6.43505 3.54984H4.50958V11.4441Z" fill="black"/>
</svg>
