<svg width="4" height="3" viewBox="0 0 4 3" fill="none" xmlns="http://www.w3.org/2000/svg">
<path d="M0.804417 1.76052C0.799758 1.51651 0.869944 1.27667 1.00604 1.07155C1.14213 0.86643 1.33797 0.705314 1.56862 0.608721C1.79927 0.512127 2.05429 0.484427 2.30119 0.529149C2.5481 0.57387 2.77572 0.68899 2.95506 0.859846C3.13441 1.0307 3.25736 1.24956 3.30826 1.48855C3.35916 1.72754 3.33571 1.97584 3.24089 2.20184C3.14608 2.42783 2.98418 2.62129 2.77583 2.75757C2.56748 2.89385 2.3221 2.96679 2.07094 2.96709C1.73842 2.96999 1.4183 2.84457 1.18085 2.61836C0.943401 2.39215 0.808018 2.08363 0.804417 1.76052ZM3.14425 1.76052C3.14897 1.55287 3.0899 1.34857 2.97457 1.1737C2.85924 0.998836 2.6929 0.861335 2.49678 0.77876C2.30066 0.696184 2.08366 0.672281 1.87349 0.710103C1.66333 0.747925 1.46953 0.845755 1.31685 0.991101C1.16417 1.13645 1.05953 1.32271 1.0163 1.52612C0.973062 1.72952 0.993195 1.94083 1.07413 2.13306C1.15506 2.32529 1.29311 2.48972 1.47066 2.60536C1.64821 2.72099 1.8572 2.78258 2.07094 2.78226C2.35256 2.7846 2.62365 2.67838 2.82483 2.48686C3.02601 2.29535 3.14087 2.03416 3.14425 1.76052ZM1.41844 1.76397C1.40824 1.67004 1.41815 1.57508 1.44756 1.48505C1.47697 1.39503 1.52523 1.3119 1.58932 1.24089C1.6534 1.16987 1.73192 1.11252 1.81992 1.07242C1.90793 1.03233 2.00352 1.01038 2.10069 1.00793C2.23518 1.00342 2.36764 1.04075 2.47877 1.11449C2.58991 1.18823 2.67391 1.29453 2.71853 1.4179L2.48383 1.50541C2.45883 1.42555 2.40835 1.35548 2.33967 1.30533C2.27099 1.25518 2.18768 1.22755 2.10178 1.22644C1.80486 1.22644 1.67033 1.48844 1.67033 1.76423C1.67033 2.04002 1.80159 2.29168 2.10533 2.29168C2.1898 2.29326 2.27239 2.26733 2.33994 2.21803C2.40749 2.16872 2.45613 2.09887 2.4781 2.0196L2.70243 2.09916C2.66318 2.22205 2.5835 2.32902 2.47564 2.40366C2.36777 2.47829 2.23767 2.51647 2.10533 2.51231C2.0083 2.51102 1.91261 2.49014 1.82432 2.451C1.73604 2.41186 1.6571 2.3553 1.59251 2.28493C1.52792 2.21456 1.47909 2.13191 1.44912 2.04223C1.41915 1.95254 1.40871 1.85778 1.41844 1.76397Z" fill="black"/>
</svg>
