<svg width="15" height="15" viewBox="0 0 15 15" fill="none" xmlns="http://www.w3.org/2000/svg">
<path d="M7.62522 6.17918H14.6998L14.6118 7.98158C14.5811 8.95146 14.3684 9.90774 13.9839 10.8033C13.6343 11.617 13.1296 12.3593 12.4965 12.991C11.8709 13.6043 11.1252 14.0896 10.3034 14.418C9.42617 14.7675 8.48577 14.9427 7.53772 14.9332C6.50829 14.9416 5.48806 14.7444 4.54027 14.3539C3.64186 13.9861 2.82872 13.4465 2.14917 12.7673C0.761095 11.3588 -0.00948104 9.48127 8.80671e-05 7.53111C-0.0047011 6.54361 0.186402 5.56448 0.562942 4.64726C0.920759 3.76488 1.44794 2.95664 2.11642 2.2656C2.8017 1.56194 3.62898 1.00319 4.54655 0.62428C5.46412 0.24537 6.45226 0.0544421 7.4492 0.0634287C8.15339 0.061462 8.85439 0.155354 9.53176 0.342367C10.1902 0.524065 10.8176 0.798812 11.3938 1.1578C11.9692 1.51778 12.4856 1.95977 12.9258 2.46896C13.3849 3.00222 13.7533 3.60351 14.0167 4.24998H9.80705C9.43169 3.95227 8.99054 3.74296 8.51812 3.63841C8.15297 3.55535 7.78008 3.50854 7.4052 3.49869C6.88113 3.49473 6.36237 3.60091 5.88447 3.80995C5.41915 4.01348 4.99987 4.30447 4.6508 4.66615C4.29427 5.03692 4.01365 5.47025 3.82391 5.943C3.62444 6.43486 3.52336 6.95918 3.52611 7.48785C3.52186 8.02375 3.62294 8.55551 3.82391 9.05458C4.01349 9.52741 4.29413 9.96077 4.6508 10.3314C4.99956 10.6941 5.41887 10.9859 5.88447 11.1901C6.36238 11.3991 6.88116 11.5051 7.4052 11.5009C7.64528 11.4966 7.88472 11.4752 8.12156 11.4367C8.43241 11.3868 8.73586 11.3003 9.0252 11.1792C9.36233 11.0376 9.67464 10.8456 9.95083 10.6104C10.2706 10.3355 10.5229 9.99451 10.6892 9.61245H7.62522V6.17918Z" fill="black"/>
</svg>
