<svg width="17" height="15" viewBox="0 0 17 15" fill="none" xmlns="http://www.w3.org/2000/svg">
<path d="M8.60271 1.2927e-05C7.07549 -0.0027418 5.58175 0.434833 4.31056 1.25736C3.03937 2.07988 2.04788 3.25037 1.46156 4.62069C0.875248 5.991 0.720474 7.49954 1.01683 8.95537C1.31319 10.4112 2.04735 11.7489 3.1264 12.7991C4.20545 13.8493 5.58088 14.5648 7.0786 14.8551C8.57632 15.1454 10.129 14.9974 11.5401 14.4299C12.9513 13.8623 14.1574 12.9007 15.0059 11.6668C15.8544 10.4329 16.307 8.98206 16.3066 7.49802C16.3075 6.51415 16.1088 5.53976 15.7221 4.63049C15.3354 3.72121 14.7681 2.89485 14.0528 2.1986C13.3374 1.50235 12.4879 0.949828 11.5528 0.572593C10.6176 0.195359 9.61521 0.000796158 8.60271 1.2927e-05ZM8.60271 11.4151C7.80567 11.4163 7.02618 11.1877 6.36285 10.7583C5.69952 10.3289 5.18216 9.71801 4.87621 9.00284C4.57026 8.28768 4.48948 7.5004 4.64408 6.74061C4.79868 5.98082 5.18172 5.28266 5.74474 4.73446C6.30775 4.18625 7.02545 3.81262 7.80703 3.66085C8.58862 3.50908 9.39897 3.58597 10.1356 3.88182C10.8722 4.17766 11.5019 4.67915 11.9451 5.32285C12.3884 5.96654 12.6252 6.72352 12.6256 7.49802C12.6265 8.01196 12.5231 8.52103 12.3213 8.99611C12.1195 9.47119 11.8234 9.90295 11.4497 10.2667C11.0761 10.6305 10.6323 10.9191 10.1438 11.116C9.65529 11.313 9.13161 11.4145 8.60271 11.4146V11.4151Z" fill="black"/>
</svg>
