<svg width="16" height="15" viewBox="0 0 16 15" fill="none" xmlns="http://www.w3.org/2000/svg">
<path d="M15.6546 7.53159C15.6659 8.98248 15.2358 10.4043 14.4183 11.6184C13.6008 12.8326 12.4323 13.7849 11.0596 14.3559C10.1232 14.7456 9.11403 14.9428 8.09542 14.9351C7.08762 14.9421 6.0894 14.7449 5.16449 14.3559C4.26993 13.9806 3.45811 13.4414 2.77338 12.7678C2.08663 12.0901 1.53724 11.293 1.1539 10.4179C0.753709 9.50659 0.551126 8.52488 0.558804 7.53407C0.552594 6.54674 0.751159 5.56831 1.14264 4.65719C1.51773 3.77648 2.0598 2.97212 2.74063 2.28597C3.42313 1.60191 4.23476 1.05193 5.13123 0.666037C6.06389 0.262673 7.07458 0.0578776 8.09542 0.0654008H15.6546V7.53159ZM12.1285 7.53159V3.49718H8.09542C7.56683 3.49757 7.04373 3.6013 6.55726 3.80221C6.07078 4.00312 5.63088 4.29709 5.26375 4.66663C4.8975 5.04037 4.606 5.47707 4.40413 5.95442C4.18968 6.45396 4.08091 6.99034 4.08432 7.53159C4.07952 8.06838 4.18385 8.6008 4.39133 9.09831C4.5851 9.56761 4.87355 9.99448 5.23971 10.3538C5.60718 10.7096 6.04142 10.9936 6.51892 11.1906C7.01929 11.3958 7.55691 11.5016 8.10003 11.5016C8.64315 11.5016 9.18076 11.3958 9.68113 11.1906C10.1566 10.9899 10.5901 10.7063 10.9603 10.3538C11.332 9.99666 11.6246 9.56941 11.82 9.09831C12.0273 8.60075 12.1316 8.06836 12.127 7.53159" fill="#E50914"/>
</svg>
